<svg style="fill: #A6A6A6" viewBox="0 0 1024 1024" width='24' height='24' xmlns="http://www.w3.org/2000/svg"><path d="M810.666667 810.666667h-128v-226.133334a64 64 0 0 0-64-64 64 64 0 0 0-64 64V810.666667h-128v-384h128v51.2c21.333333-35.84 67.84-59.733333 106.666666-59.733334a149.333333 149.333333 0 0 1 149.333334 149.333334M277.333333 354.56c-42.666667 0-77.226667-34.56-77.226666-77.226667A77.226667 77.226667 0 0 1 277.333333 200.106667c42.666667 0 77.226667 34.56 77.226667 77.226666A77.226667 77.226667 0 0 1 277.333333 354.56M341.333333 810.666667H213.333333v-384h128m512-341.333334H170.666667c-47.36 0-85.333333 37.973333-85.333334 85.333334v682.666666a85.333333 85.333333 0 0 0 85.333334 85.333334h682.666666a85.333333 85.333333 0 0 0 85.333334-85.333334V170.666667a85.333333 85.333333 0 0 0-85.333334-85.333334z" fill="" /></svg>